PathFileType	4	(X/Y/Z)	Walk1.trc
DataRate	CameraRate	NumFrames	NumMarkers	Units	OrigDataRate	OrigDataStartFrame	OrigNumFrames
200.000000	200.000000	6	61	mm	200.000000	348	638
Frame#	Times		RCAR		LToe		LLFC		LASI		LFA1		RACR1		LUA1		RWRR		LCAR		LElbow		RLFC		LWRR		RTB2		RToe		RFA1		LACR1		RMT1		RTH3		RTH2		RTB3		LTH3		RFHD		RMT5		LTH4		RTB1		STRN		LFHD		LTB1		RTB4		LTB4		LWRU		RCAL		RWRU		LPSI		LTH2		C7		LMT1		RPSI		RMMAL		RLMAL		RASI		RMFC		LTB3		CLAV		LTB2		RElbow		LBHD		RBHD		LMFC		RUA1		RBack		RElbowM		LMMAL		RTH4		LElbowM		LMT5		LCAL		T10		LTH1		LLMAL		RTH1
			X1	Y1	Z1	X2	Y2	Z2	X3	Y3	Z3	X4	Y4	Z4	X5	Y5	Z5	X6	Y6	Z6	X7	Y7	Z7	X8	Y8	Z8	X9	Y9	Z9	X10	Y10	Z10	X11	Y11	Z11	X12	Y12	Z12	X13	Y13	Z13	X14	Y14	Z14	X15	Y15	Z15	X16	Y16	Z16	X17	Y17	Z17	X18	Y18	Z18	X19	Y19	Z19	X20	Y20	Z20	X21	Y21	Z21	X22	Y22	Z22	X23	Y23	Z23	X24	Y24	Z24	X25	Y25	Z25	X26	Y26	Z26	X27	Y27	Z27	X28	Y28	Z28	X29	Y29	Z29	X30	Y30	Z30	X31	Y31	Z31	X32	Y32	Z32	X33	Y33	Z33	X34	Y34	Z34	X35	Y35	Z35	X36	Y36	Z36	X37	Y37	Z37	X38	Y38	Z38	X39	Y39	Z39	X40	Y40	Z40	X41	Y41	Z41	X42	Y42	Z42	X43	Y43	Z43	X44	Y44	Z44	X45	Y45	Z45	X46	Y46	Z46	X47	Y47	Z47	X48	Y48	Z48	X49	Y49	Z49	X50	Y50	Z50	X51	Y51	Z51	X52	Y52	Z52	X53	Y53	Z53	X54	Y54	Z54	X55	Y55	Z55	X56	Y56	Z56	X57	Y57	Z57	X58	Y58	Z58	X59	Y59	Z59	X60	Y60	Z60	X61	Y61	Z61

348	1.74	-212.84	863.35	373.65	-149.61	30.892	-22.827	-287.52	503.19	-139.93	-153.08	1040	-154.89	-114.04	1076.4	-312.68	-215.39	1508.6	194.54	-202.09	1357.1	-262.02	-198.14	908.79	316.17	-35.404	928.37	-318.24	-222.04	1188	-316.12	-78.591	537.18	214.29	-44.693	966.26	-262.5	-33.479	305.78	190.41	119.62	83.16	140.08	-246.63	1047.8	338.27	-205.06	1538.8	-177.77	71.548	86.64	122.25	-130.99	657.79	219.26	-118.65	761.58	230.87	-37.114	223.15	123.65	-246.74	649.16	-166.49	-62.12	1704	84.59	28.334	56.708	202.85	-241.05	734.21	-185.34	-21.457	394.77	134.73	-84.555	1301.4	4.0528	-56.854	1713	-19.995	-270.23	356.71	-29.331	-29.798	308.38	128.63	-290.46	274.46	-21.524	-113.44	944.34	-322.29	-146.21	59.103	116.94	-272.02	903.43	364.92	-376.59	1081.7	-54.215	-183.79	734.2	-172.68	-312.16	1566.4	11.043	-207.14	46.473	-9.0748	-377.1	1068.2	53.722	-56.075	128.39	75.835	-92.68	96.802	165.01	-162.86	1051.5	165.5	-75.968	522.32	66.869	-307.52	190.52	-14.817	-145.79	1475.6	-3.1505	-270.38	264.48	-81.348	-322.41	1181.8	313.38	-222.32	1704.6	-49.026	-233.69	1696.4	93.051	-281.05	506.85	2.058	-259.08	1334	269.54	-379.18	1447.7	122.1	-341.63	1154.7	222.05	-343.91	97.068	29.282	-170.44	731.69	222.45	-256.81	1155.1	-233.53	-252.58	26.847	-101.89	-433.4	47.401	-29.973	-358.56	1209.1	-3.9431	-235.45	819.28	-202.35	-366.32	69.527	-68.893	-211.48	811.14	224.79
349	1.745	-209.29	862.2	373.62	-149.56	30.856	-22.86	-285.22	502.98	-139.81	-148.49	1039.3	-154.63	-108.25	1076.1	-312.36	-210.55	1507.9	194.86	-197.13	1356.4	-261.73	-194.39	907.63	316.18	-29.066	928.33	-317.89	-216.65	1187.2	-315.85	-73.227	535.88	213.77	-38.49	966.2	-262.16	-22.021	305.68	190.44	136.86	86.457	140.19	-242.45	1046.8	338.3	-200.43	1538.1	-177.5	88.706	88.717	122.51	-126.53	656.43	218.64	-114.24	760.14	231.01	-23.528	222.81	123.92	-243.39	648.78	-166.29	-57.44	1703.4	84.898	46.377	58.054	203.29	-237.13	733.88	-185.25	-12.432	394.77	134.5	-79.612	1300.8	4.1721	-52.202	1712.4	-19.695	-268.8	356.38	-29.265	-18.446	308.2	128.64	-289.4	274.21	-21.471	-107.18	943.98	-321.92	-128.36	56.056	117.9	-268.31	902.48	364.85	-371.53	1080.9	-53.66	-180.06	733.47	-171.95	-307.41	1565.6	11.383	-207.09	46.445	-9.0575	-371.85	1067.2	54.207	-40.034	127.42	76.372	-75.691	95.119	165.7	-157.66	1050.6	165.79	-70.144	521.23	66.135	-306.86	190.36	-14.776	-140.98	1474.9	-2.9189	-269.38	264.15	-81.253	-317.82	1181	313.33	-217.66	1703.9	-48.683	-228.99	1695.7	93.392	-278.98	506.67	2.1735	-254.21	1333.2	269.72	-374.34	1446.9	122.43	-337	1154	221.96	-343.74	97.073	29.329	-166.06	730.35	221.92	-251.32	1154.2	-233.25	-252.56	26.839	-101.89	-433.36	47.557	-29.942	-353.51	1208.3	-3.3132	-231.06	818.8	-202.15	-366.2	69.608	-68.861	-206.93	809.76	224.32
350	1.75	-205.7	861.02	373.6	-149.5	30.819	-22.896	-282.94	502.78	-139.69	-143.81	1038.5	-154.38	-102.5	1075.7	-312.02	-205.7	1507.1	195.19	-192.17	1355.7	-261.43	-190.61	906.44	316.2	-22.779	928.24	-317.52	-211.28	1186.4	-315.54	-67.944	534.55	213.23	-32.326	966.09	-261.81	-10.694	305.69	190.48	153.83	89.944	140.36	-238.23	1045.8	338.34	-195.81	1537.4	-177.22	105.63	90.992	122.81	-122.19	654.98	217.96	-109.94	758.6	231.12	-10.09	222.62	124.22	-240.06	648.4	-166.09	-52.755	1702.7	85.221	64.183	59.666	203.78	-233.22	733.55	-185.17	-3.522	394.81	134.26	-74.651	1300.2	4.3048	-47.548	1711.8	-19.378	-267.38	356.05	-29.198	-7.2238	308.12	128.66	-288.35	273.97	-21.411	-100.96	943.57	-321.52	-110.64	53.3	118.9	-264.56	901.5	364.8	-366.45	1080.2	-53.1	-176.33	732.72	-171.21	-302.67	1564.8	11.747	-207.04	46.424	-9.0426	-366.58	1066.2	54.701	-24.148	126.67	76.936	-58.856	93.701	166.42	-152.42	1049.7	166.08	-64.384	520.11	65.362	-306.21	190.21	-14.732	-136.16	1474.2	-2.6697	-268.39	263.82	-81.154	-313.17	1180.2	313.31	-213	1703.2	-48.319	-224.29	1694.9	93.752	-276.92	506.49	2.2976	-249.29	1332.4	269.91	-369.49	1446	122.8	-332.33	1153.3	221.89	-343.57	97.085	29.378	-161.79	728.95	221.35	-245.84	1153.3	-232.94	-252.54	26.831	-101.89	-433.33	47.719	-29.912	-348.44	1207.4	-2.6634	-226.67	818.31	-201.95	-366.08	69.699	-68.831	-202.46	808.32	223.81
351	1.755	-202.06	859.81	373.6	-149.44	30.781	-22.935	-280.69	502.59	-139.55	-139.05	1037.8	-154.13	-96.773	1075.2	-311.67	-200.83	1506.3	195.55	-187.22	1354.9	-261.11	-186.78	905.21	316.24	-16.546	928.1	-317.15	-205.92	1185.6	-315.2	-62.733	533.2	212.66	-26.2	965.94	-261.46	0.49504	305.81	190.51	170.53	93.604	140.58	-233.96	1044.7	338.4	-191.19	1536.6	-176.91	122.31	93.451	123.16	-117.95	653.45	217.23	-105.71	756.97	231.21	3.1877	222.57	124.53	-236.75	648.01	-165.88	-48.064	1702	85.558	81.724	61.529	204.32	-229.31	733.21	-185.09	5.2704	394.88	134.01	-69.67	1299.5	4.4522	-42.89	1711.1	-19.046	-265.99	355.72	-29.126	3.861	308.13	128.69	-287.32	273.73	-21.346	-94.793	943.13	-321.1	-93.076	50.837	119.93	-260.76	900.49	364.77	-361.34	1079.4	-52.533	-172.62	731.93	-170.46	-297.91	1563.9	12.135	-206.99	46.41	-9.0305	-361.3	1065.3	55.204	-8.4358	126.12	77.521	-42.201	92.542	167.16	-147.15	1048.8	166.38	-58.687	518.96	64.558	-305.57	190.06	-14.685	-131.32	1473.5	-2.4014	-267.42	263.5	-81.054	-308.47	1179.3	313.3	-208.34	1702.5	-47.936	-219.59	1694.1	94.131	-274.87	506.32	2.4307	-244.33	1331.6	270.14	-364.61	1445.1	123.2	-327.6	1152.6	221.85	-343.41	97.106	29.43	-157.61	727.48	220.75	-240.36	1152.3	-232.59	-252.51	26.824	-101.89	-433.29	47.89	-29.881	-343.34	1206.5	-1.9942	-222.27	817.81	-201.75	-365.97	69.803	-68.803	-198.07	806.83	223.27
352	1.76	-198.38	858.56	373.61	-149.39	30.742	-22.978	-278.47	502.41	-139.41	-134.21	1037	-153.89	-91.08	1074.7	-311.3	-195.95	1505.6	195.92	-182.28	1354.1	-260.76	-182.91	903.95	316.28	-10.365	927.9	-316.76	-200.59	1184.8	-314.82	-57.581	531.83	212.08	-20.113	965.74	-261.09	11.538	306.04	190.55	186.92	97.414	140.85	-229.65	1043.6	338.47	-186.56	1535.9	-176.58	138.71	96.077	123.54	-113.79	651.86	216.45	-101.54	755.27	231.27	16.292	222.68	124.85	-233.46	647.61	-165.67	-43.368	1701.3	85.91	98.971	63.624	204.91	-225.42	732.87	-185.01	13.944	395	133.76	-64.669	1298.9	4.6165	-38.229	1710.4	-18.697	-264.61	355.39	-29.049	14.803	308.23	128.73	-286.3	273.5	-21.277	-88.674	942.64	-320.66	-75.693	48.665	120.97	-256.92	899.45	364.76	-356.2	1078.6	-51.962	-168.93	731.11	-169.71	-293.15	1563	12.548	-206.94	46.401	-9.0215	-355.99	1064.3	55.717	7.0834	125.79	78.118	-25.75	91.639	167.9	-141.85	1047.9	166.68	-53.052	517.79	63.734	-304.93	189.92	-14.634	-126.48	1472.8	-2.113	-266.46	263.18	-80.954	-303.72	1178.5	313.32	-203.68	1701.7	-47.531	-214.87	1693.3	94.529	-272.84	506.15	2.5731	-239.34	1330.8	270.38	-359.71	1444.2	123.62	-322.83	1151.8	221.82	-343.24	97.136	29.485	-153.49	725.97	220.13	-234.89	1151.4	-232.2	-252.49	26.817	-101.89	-433.26	48.07	-29.848	-338.22	1205.6	-1.3058	-217.89	817.29	-201.55	-365.87	69.919	-68.775	-193.74	805.29	222.7
353	1.765	-194.65	857.29	373.64	-149.34	30.703	-23.024	-276.28	502.23	-139.26	-129.29	1036.3	-153.65	-85.419	1074.2	-310.91	-191.04	1504.7	196.32	-177.34	1353.3	-260.39	-178.99	902.66	316.35	-4.2383	927.66	-316.37	-195.26	1183.9	-314.41	-52.477	530.45	211.49	-14.066	965.5	-260.72	22.428	306.37	190.59	202.98	101.35	141.18	-225.28	1042.5	338.55	-181.94	1535.1	-176.23	154.83	98.849	123.96	-109.71	650.22	215.62	-97.423	753.5	231.32	29.209	222.93	125.19	-230.19	647.21	-165.45	-38.666	1700.6	86.279	115.9	65.925	205.53	-221.55	732.51	-184.93	22.499	395.15	133.51	-59.646	1298.2	4.7994	-33.566	1709.7	-18.331	-263.24	355.08	-28.967	25.596	308.42	128.79	-285.29	273.28	-21.205	-82.604	942.13	-320.21	-58.526	46.778	122	-253.03	898.38	364.76	-351.03	1077.8	-51.386	-165.26	730.27	-168.98	-288.38	1562.1	12.986	-206.89	46.399	-9.0155	-350.66	1063.3	56.24	22.389	125.65	78.715	-9.5321	90.981	168.64	-136.51	1047	166.99	-47.477	516.6	62.901	-304.3	189.79	-14.577	-121.63	1472	-1.8035	-265.51	262.88	-80.854	-298.92	1177.6	313.35	-199.01	1700.9	-47.105	-210.16	1692.5	94.949	-270.83	505.99	2.7248	-234.31	1329.9	270.65	-354.8	1443.3	124.08	-318.01	1151.1	221.83	-343.08	97.176	29.544	-149.43	724.4	219.5	-229.43	1150.4	-231.77	-252.47	26.812	-101.88	-433.23	48.26	-29.812	-333.08	1204.7	-0.59919	-213.52	816.75	-201.36	-365.77	70.047	-68.745	-189.46	803.72	222.12
